<svg width="512" height="512" viewBox="0 0 512 512" fill="none" xmlns="http://www.w3.org/2000/svg">
<rect width="512" height="512" rx="125" fill="#944EDF"/>
<mask id="path-2-inside-1_355_47" fill="white">
<path d="M343 133C367.853 133 388 153.147 388 178V329.701C388 354.554 367.853 374.701 343 374.701H170C145.147 374.701 125 354.554 125 329.701V211.338C125 186.485 145.147 166.338 170 166.338H250.487C252.751 166.338 254.705 164.805 255.475 162.677C261.743 145.368 278.324 133 297.796 133H343Z"/>
</mask>
<path d="M343 133C367.853 133 388 153.147 388 178V329.701C388 354.554 367.853 374.701 343 374.701H170C145.147 374.701 125 354.554 125 329.701V211.338C125 186.485 145.147 166.338 170 166.338H250.487C252.751 166.338 254.705 164.805 255.475 162.677C261.743 145.368 278.324 133 297.796 133H343Z" fill="#AB5DFF"/>
<path d="M343 133L343 113H343V133ZM388 178H408V178H388ZM388 329.701L408 329.701V329.701H388ZM125 329.701H105V329.701L125 329.701ZM125 211.338L105 211.338V211.338H125ZM255.475 162.677L274.281 169.487L255.475 162.677ZM343 133L343 153C356.807 153 368 164.193 368 178H388H408C408 142.101 378.898 113 343 113L343 133ZM388 178H368V329.701H388H408V178H388ZM388 329.701L368 329.701C368 343.508 356.807 354.701 343 354.701V374.701V394.701C378.899 394.701 408 365.599 408 329.701L388 329.701ZM343 374.701V354.701H170V374.701V394.701H343V374.701ZM170 374.701V354.701C156.193 354.701 145 343.508 145 329.701L125 329.701L105 329.701C105 365.599 134.101 394.701 170 394.701V374.701ZM125 329.701H145V211.338H125H105V329.701H125ZM125 211.338L145 211.338C145 197.531 156.193 186.338 170 186.338V166.338V146.338C134.101 146.338 105 175.439 105 211.338L125 211.338ZM170 166.338V186.338H250.487V166.338V146.338H170V166.338ZM255.475 162.677L274.281 169.487C277.774 159.84 287.011 153 297.796 153V133V113C269.636 113 245.713 130.897 236.67 155.868L255.475 162.677ZM297.796 133V153H343V133V113H297.796V133ZM250.487 166.338V186.338C262.145 186.338 270.99 178.575 274.281 169.487L255.475 162.677L236.67 155.868C238.42 151.036 243.357 146.338 250.487 146.338V166.338Z" fill="#79A2AA" mask="url(#path-2-inside-1_355_47)"/>
<mask id="path-4-inside-2_355_47" fill="white">
<path d="M386.691 227.722C386.691 227.867 386.808 227.984 386.954 227.984H387.2C387.56 227.984 387.806 228.349 387.672 228.683L386.837 230.766C386.74 231.006 386.691 231.262 386.691 231.52V329.702C386.691 354.555 366.543 374.702 341.691 374.702H184.215C184.069 374.702 183.952 374.584 183.952 374.439C183.952 374.294 183.834 374.176 183.688 374.176H160.205C143.395 374.176 131.908 357.189 138.166 341.588L177.656 243.151C181.459 233.672 190.646 227.459 200.859 227.459H386.428C386.573 227.459 386.691 227.577 386.691 227.722Z"/>
</mask>
<path d="M386.691 227.722C386.691 227.867 386.808 227.984 386.954 227.984H387.2C387.56 227.984 387.806 228.349 387.672 228.683L386.837 230.766C386.74 231.006 386.691 231.262 386.691 231.52V329.702C386.691 354.555 366.543 374.702 341.691 374.702H184.215C184.069 374.702 183.952 374.584 183.952 374.439C183.952 374.294 183.834 374.176 183.688 374.176H160.205C143.395 374.176 131.908 357.189 138.166 341.588L177.656 243.151C181.459 233.672 190.646 227.459 200.859 227.459H386.428C386.573 227.459 386.691 227.577 386.691 227.722Z" fill="#BF83FF"/>
<path d="M386.691 329.702L406.691 329.702V329.702H386.691ZM341.691 374.702V394.702H341.691L341.691 374.702ZM177.656 243.151L159.094 235.704L177.656 243.151ZM386.837 230.766L405.398 238.213L386.837 230.766ZM387.672 228.683L406.234 236.131L387.672 228.683ZM386.954 227.984V247.984H387.2V227.984V207.984H386.954V227.984ZM387.672 228.683L369.111 221.235L368.275 223.318L386.837 230.766L405.398 238.213L406.234 236.131L387.672 228.683ZM386.691 231.52H366.691V329.702H386.691H406.691V231.52H386.691ZM386.691 329.702L366.691 329.702C366.691 343.509 355.498 354.702 341.691 354.702L341.691 374.702L341.691 394.702C377.589 394.702 406.69 365.6 406.691 329.702L386.691 329.702ZM341.691 374.702V354.702H184.215V374.702V394.702H341.691V374.702ZM183.688 374.176V354.176H160.205V374.176V394.176H183.688V374.176ZM138.166 341.588L156.728 349.035L196.219 250.597L177.656 243.151L159.094 235.704L119.604 334.142L138.166 341.588ZM200.859 227.459V247.459H386.428V227.459V207.459H200.859V227.459ZM386.428 227.459V247.459C375.528 247.459 366.691 238.623 366.691 227.722H386.691H406.691C406.691 216.531 397.619 207.459 386.428 207.459V227.459ZM177.656 243.151L196.219 250.597C196.979 248.702 198.816 247.459 200.859 247.459V227.459V207.459C182.475 207.459 165.939 218.642 159.094 235.704L177.656 243.151ZM160.205 374.176V354.176C157.553 354.176 155.741 351.496 156.728 349.035L138.166 341.588L119.604 334.142C108.074 362.883 129.238 394.176 160.205 394.176V374.176ZM386.837 230.766L368.275 223.318C367.229 225.926 366.691 228.71 366.691 231.52H386.691H406.691C406.691 233.813 406.252 236.085 405.398 238.213L386.837 230.766ZM183.952 374.439H203.952C203.952 363.248 194.879 354.176 183.688 354.176V374.176V394.176C172.788 394.176 163.952 385.339 163.952 374.439H183.952ZM387.2 227.984V247.984C373.402 247.984 363.973 234.041 369.111 221.235L387.672 228.683L406.234 236.131C411.64 222.656 401.719 207.984 387.2 207.984V227.984ZM184.215 374.702V354.702C195.115 354.702 203.952 363.539 203.952 374.439H183.952H163.952C163.952 385.63 173.023 394.702 184.215 394.702V374.702ZM386.954 227.984V207.984C397.854 207.984 406.691 216.821 406.691 227.722H386.691H366.691C366.691 238.912 375.763 247.984 386.954 247.984V227.984Z" fill="#783DB8" mask="url(#path-4-inside-2_355_47)"/>
<mask id="path-6-inside-3_355_47" fill="white">
<path d="M343 133C367.853 133 388 153.147 388 178V329.7C388 354.553 367.853 374.701 343 374.701H170C145.147 374.701 125 354.554 125 329.701V212.264C125 187.411 145.147 167.264 170 167.264H250.164C252.468 167.264 254.445 165.679 255.187 163.498C261.222 145.761 278.017 133 297.796 133H343Z"/>
</mask>
<path d="M343 133L343 113H343V133ZM388 178H408V178H388ZM125 329.701H105V329.701L125 329.701ZM125 212.264L105 212.263V212.264H125ZM255.187 163.498L274.121 169.94L255.187 163.498ZM343 133L343 153C356.807 153 368 164.193 368 178H388H408C408 142.101 378.898 113 343 113L343 133ZM388 178H368V329.7H388H408V178H388ZM388 329.7H368C368 343.508 356.807 354.701 343 354.701V374.701V394.701C378.899 394.701 408 365.598 408 329.7H388ZM343 374.701V354.701H170V374.701V394.701H343V374.701ZM170 374.701V354.701C156.193 354.701 145 343.508 145 329.701L125 329.701L105 329.701C105 365.599 134.101 394.701 170 394.701V374.701ZM125 329.701H145V212.264H125H105V329.701H125ZM125 212.264L145 212.264C145 198.457 156.193 187.264 170 187.264V167.264V147.264C134.101 147.264 105 176.366 105 212.263L125 212.264ZM170 167.264V187.264H250.164V167.264V147.264H170V167.264ZM255.187 163.498L274.121 169.94C277.483 160.06 286.841 153 297.796 153V133V113C269.194 113 244.961 131.461 236.253 157.056L255.187 163.498ZM297.796 133V153H343V133V113H297.796V133ZM250.164 167.264V187.264C262.032 187.264 270.958 179.237 274.121 169.94L255.187 163.498L236.253 157.056C237.932 152.12 242.903 147.264 250.164 147.264V167.264Z" fill="#5F2F93" mask="url(#path-6-inside-3_355_47)"/>
<circle cx="302.803" cy="188.565" r="13.8908" fill="#5F2F93"/>
<circle cx="339.845" cy="188.565" r="13.8908" fill="#8444C9"/>
<path d="M348.643 323.768C352.478 323.768 355.588 326.877 355.588 330.713C355.588 334.549 352.478 337.658 348.643 337.658H261.593C257.757 337.658 254.647 334.549 254.647 330.713C254.648 326.877 257.757 323.768 261.593 323.768H348.643ZM348.642 294.134C352.477 294.134 355.587 297.243 355.587 301.079C355.587 304.915 352.477 308.024 348.642 308.024H270.818C266.983 308.024 263.873 304.915 263.873 301.079C263.873 297.243 266.983 294.134 270.818 294.134H348.642ZM348.643 264.5C352.478 264.5 355.588 267.61 355.588 271.445C355.588 275.281 352.478 278.39 348.643 278.391H280.587C276.751 278.391 273.642 275.281 273.642 271.445C273.642 267.61 276.751 264.5 280.587 264.5H348.643Z" fill="#783DB8"/>
</svg>
